<svg width="35" height="35" viewBox="0 0 35 35" fill="none" xmlns="http://www.w3.org/2000/svg">
<g filter="url(#filter0_b_0_1055)">
<path fill-rule="evenodd" clip-rule="evenodd" d="M17.5 35C27.165 35 35 27.165 35 17.5C35 7.83502 27.165 0 17.5 0C7.83502 0 0 7.83502 0 17.5C0 27.165 7.83502 35 17.5 35Z" fill="#6938D3"/>
</g>
<g filter="url(#filter1_b_0_1055)">
<path fill-rule="evenodd" clip-rule="evenodd" d="M18 28C23.5228 28 28 23.5228 28 18C28 12.4772 23.5228 8 18 8C12.4772 8 8 12.4772 8 18C8 23.5228 12.4772 28 18 28Z" fill="#00FF94"/>
<path d="M27.5 18C27.5 23.2467 23.2467 27.5 18 27.5C12.7533 27.5 8.5 23.2467 8.5 18C8.5 12.7533 12.7533 8.5 18 8.5C23.2467 8.5 27.5 12.7533 27.5 18Z" stroke="white"/>
</g>
<path d="M22.5 18C22.5 20.4853 20.4853 22.5 18 22.5C15.5147 22.5 13.5 20.4853 13.5 18C13.5 15.5147 15.5147 13.5 18 13.5C20.4853 13.5 22.5 15.5147 22.5 18Z" fill="#6938D3" stroke="white"/>
<defs>
<filter id="filter0_b_0_1055" x="-27.1828" y="-27.1828" width="89.3656" height="89.3656" filterUnits="userSpaceOnUse" color-interpolation-filters="sRGB">
<feFlood flood-opacity="0" result="BackgroundImageFix"/>
<feGaussianBlur in="BackgroundImageFix" stdDeviation="13.5914"/>
<feComposite in2="SourceAlpha" operator="in" result="effect1_backgroundBlur_0_1055"/>
<feBlend mode="normal" in="SourceGraphic" in2="effect1_backgroundBlur_0_1055" result="shape"/>
</filter>
<filter id="filter1_b_0_1055" x="-19.1828" y="-19.1828" width="74.3656" height="74.3656" filterUnits="userSpaceOnUse" color-interpolation-filters="sRGB">
<feFlood flood-opacity="0" result="BackgroundImageFix"/>
<feGaussianBlur in="BackgroundImageFix" stdDeviation="13.5914"/>
<feComposite in2="SourceAlpha" operator="in" result="effect1_backgroundBlur_0_1055"/>
<feBlend mode="normal" in="SourceGraphic" in2="effect1_backgroundBlur_0_1055" result="shape"/>
</filter>
</defs>
</svg>
